<svg xmlns="http://www.w3.org/2000/svg" width="100" height="100" viewBox="0 0 100 100"><circle cx="50" cy="50" r="50" fill="#2a1f00"/><g transform="translate(25 24.937)"><path d="M1186.08,380.705h-15.075c-.306-.027-.612-.07-.919-.078a27.862,27.862,0,0,1-5.969-.611,12.831,12.831,0,0,1-9.016-7.22,17.879,17.879,0,0,1-1.507-7.565c-.058-5.429-.118-10.859-.075-16.288a49.122,49.122,0,0,1,.49-6.818,12.7,12.7,0,0,1,5.079-8.562,15.211,15.211,0,0,1,8.31-2.787c1.2-.085,2.4-.134,3.606-.2h14.977c1.169.065,2.339.126,3.508.2a16.677,16.677,0,0,1,5.927,1.318c4.607,2.073,7.034,5.764,7.79,10.66.133.865.2,1.74.3,2.61V365.53c-.027.175-.062.349-.08.524-.106.986-.156,1.982-.321,2.958a13.314,13.314,0,0,1-4.291,8.016,14.783,14.783,0,0,1-9.179,3.479C1188.45,380.588,1187.265,380.64,1186.08,380.705Zm-3.562-4.515c2.834-.1,5.687-.076,8.493-.418a8.28,8.28,0,0,0,7.358-6.189,18,18,0,0,0,.622-5.131c.052-4.437.115-8.875.075-13.312a75.129,75.129,0,0,0-.391-7.909,8.279,8.279,0,0,0-6.98-7.546,29.828,29.828,0,0,0-5.3-.476c-4.371-.074-8.743-.06-13.115-.045a44.079,44.079,0,0,0-7.513.413,8.389,8.389,0,0,0-7.184,6.86,27.963,27.963,0,0,0-.482,5c-.086,4.029-.117,8.06-.073,12.089.031,2.819.113,5.646.376,8.45a8.318,8.318,0,0,0,3.648,6.317,10.492,10.492,0,0,0,5.687,1.7C1171.344,376.132,1181.2,376.238,1182.518,376.19Z" transform="translate(-1153.505 -330.579)" fill="#fff"/><path d="M1290.583,480.908a12.874,12.874,0,1,1,12.841-12.917A12.9,12.9,0,0,1,1290.583,480.908Zm-8.367-12.889a8.34,8.34,0,1,0,8.339-8.332A8.319,8.319,0,0,0,1282.215,468.019Z" transform="translate(-1265.523 -442.962)" fill="#fff"/><path d="M1521.286,422.291a3,3,0,1,1-3.031-2.983A2.986,2.986,0,0,1,1521.286,422.291Z" transform="translate(-1479.875 -410.621)" fill="#fff"/></g></svg>