<svg xmlns="http://www.w3.org/2000/svg" width="100" height="100" viewBox="0 0 100 100"><circle cx="50" cy="50" r="50" fill="#2a1f00"/><g transform="translate(-26.052 -50.581)"><path d="M91.327,83.567a27.474,27.474,0,0,1,3.615.43,6.327,6.327,0,0,1,5.3,5.539A60.035,60.035,0,0,1,101,102.195c-.1,2.961-.384,5.919-.672,8.869a6.619,6.619,0,0,1-2.994,5.229,8.411,8.411,0,0,1-3.808,1.108,140.736,140.736,0,0,1-15.5.642c-5.241-.026-10.481-.184-15.72-.353a44.635,44.635,0,0,1-5.019-.513,6.278,6.278,0,0,1-5.389-5.321,52.944,52.944,0,0,1-.813-8.906A75.425,75.425,0,0,1,51.6,91.2a21.156,21.156,0,0,1,.481-2.606,6.386,6.386,0,0,1,5.649-4.737,118.242,118.242,0,0,1,14.709-.747C77.2,83.114,86.2,83.336,91.327,83.567ZM71.106,93.1v14.948l12.977-7.475Z" fill="#fff"/></g></svg>