<svg xmlns="http://www.w3.org/2000/svg" width="100" height="100" viewBox="0 0 100 100"><circle cx="50" cy="50" r="50" fill="#2a1f00"/><g transform="translate(36.513 25)"><path d="M884.512,415c-.437,0-4.5.012-6.17-.006-1-.011-1.329-.3-1.338-1.255q-.037-3.848,0-7.7c.01-.95.36-1.243,1.345-1.248,1.812-.009,5.875,0,6.162,0,0-.3,0-.538,0-.776.043-2.319-.042-4.65.155-6.956a10.985,10.985,0,0,1,10.789-10.229c2.44-.092,4.887-.038,7.33-.032.811,0,1.159.35,1.163,1.161q.02,3.635,0,7.27c0,.825-.343,1.154-1.225,1.175-1.649.04-3.3.041-4.947.066-1.915.029-2.67.751-2.7,2.667-.032,1.809-.007,3.618-.007,5.493.255.012,4.878.031,6.975.033,1.367,0,1.666.3,1.667,1.636q0,3.6,0,7.209c0,1.125-.281,1.41-1.409,1.415-2.159.009-6.919,0-7.231,0,0,.3,0,13.562,0,19.936,0,1.715-.2,1.912-1.938,1.912q-3.513,0-7.025,0c-1.294,0-1.592-.3-1.592-1.573C884.512,428.749,884.512,415.354,884.512,415Z" transform="translate(-876.986 -386.779)" fill="#fff"/></g></svg>